# xmcd
#
# Track frame offsets:
# 150
# 14122
# 26090
# 41670
# 55802
# 71925
# 88570
# 102442
# 118582
# 132875
# 151207
# 171405
# 186275
# 199170
# 212997
# 228612
# 245655
# 261327
# 277150
# 289630
#
# Disc length: 4008 seconds
#
#
# Revision: 0
# Processed by: cddbd v1.5.2PL0 Copyright (c) Steve Scherf et al.
# Submitted via: FreeRIP 2.90 
#
DISCID=3e0fa614
DTITLE=Teixeirinha - Raizes dos Pampas Vol. 1
DYEAR=1900
DGENRE=Gaucha
TTITLE0=A Volta do Tordilho Negro
TTITLE1=Saudade da Minha Terra
TTITLE2=Adeus Gaúcha
TTITLE3=Minha Querida
TTITLE4=Retornando ao Pago
TTITLE5=Doce Coração de Mãe
TTITLE6=Chofer de Taxi
TTITLE7=Paixão de um Homem
TTITLE8=Não é Papo Furado
TTITLE9=Porto Alegre
TTITLE10=Aliança de Ouro
TTITLE11=Gaúcho Velho
TTITLE12=Carmem
TTITLE13=Recordação de Ypacaraí
TTITLE14=Filho Injusto
TTITLE15=Pega e Gruda
TTITLE16=Só Quero Vingança
TTITLE17=Sertaneja
TTITLE18=Vingança
TTITLE19=A volta do Boêmio
EXTD=
EXTT0=
EXTT1=
EXTT2=
EXTT3=
EXTT4=
EXTT5=
EXTT6=
EXTT7=
EXTT8=
EXTT9=
EXTT10=
EXTT11=
EXTT12=
EXTT13=
EXTT14=
EXTT15=
EXTT16=
EXTT17=
EXTT18=
EXTT19=
PLAYORDER=
